<?xml version="1.0" standalone="no"?>
<!DOCTYPE svg PUBLIC "-//W3C//DTD SVG 1.1//EN" "http://www.w3.org/Graphics/SVG/1.1/DTD/svg11.dtd" >
<!--
2013-9-30: Created.
-->
<svg>
<metadata>
Created by iconfont
</metadata>
<defs>

<font id="iconfont" horiz-adv-x="1024" >
  <font-face
    font-family="iconfont"
    font-weight="500"
    font-stretch="normal"
    units-per-em="1024"
    ascent="896"
    descent="-128"
  />
    <missing-glyph />
    
    <glyph glyph-name="arrow-up" unicode="&#58897;" d="M575 3.5v608.5l268-268c24.9-24.9 65.5-24.9 90.4 0s24.9 65.5 0 90.4l-377.2 377.1c-24.9 24.9-65.5 24.9-90.4 0-2-2-3.8-4.1-5.5-6.2l-371.5-371.6c-24.9-24.9-24.9-65.5 0-90.4 24.9-24.9 65.5-24.9 90.4 0l268 268v-607.8c0-35.2 28.8-63.9 63.9-63.9 35.2 0 63.9 28.7 63.9 63.9z"  horiz-adv-x="1024" />

    
    <glyph glyph-name="arrow-down" unicode="&#58898;" d="M447.2 766.3v-608.5l-268 268c-24.9 24.9-65.5 24.9-90.4 0-24.9-24.9-24.9-65.5 0-90.4l377.2-377.2c24.9-24.9 65.5-24.9 90.4 0 2 2 3.8 4.1 5.5 6.2l371.6 371.6c24.9 24.9 24.9 65.5 0 90.4s-65.5 24.9-90.4 0l-268-268v607.9c0 35.2-28.8 63.9-63.9 63.9-35.3 0-64-28.8-64-63.9z"  horiz-adv-x="1024" />

    
    <glyph glyph-name="refresh" unicode="&#58901;" d="M134.8 383.8c31.6 0 58.5 22.9 63.9 54.1 25.7 149.5 155.9 263.2 312.7 263.2 88.2 0 168-36 225.5-94.1l-79.6-79.6c-11.8-11.8-3.4-31.9 13.2-31.9h251.7c10.3 0 18.7 8.3 18.7 18.7v251.7c0 16.6-20.1 24.9-31.8 13.2l-80.6-80.6c-80.9 81.5-193.1 132-317.1 132-220.9 0-404.4-160.4-440.4-371-6.8-39.6 23.6-75.7 63.8-75.7zM889.7 383.8c-31.6 0-58.5-22.9-63.9-54.1-25.7-149.5-155.9-263.2-312.7-263.2-88.2 0-168 36-225.5 94.1l79.6 79.6c11.8 11.8 3.4 31.9-13.2 31.9h-251.7c-10.3 0-18.7-8.3-18.7-18.7v-251.7c0-16.6 20.1-24.9 31.8-13.2l80.6 80.6c80.9-81.5 193.1-132 317.1-132 220.9 0 404.4 160.4 440.4 371 6.8 39.5-23.7 75.7-63.8 75.7z"  horiz-adv-x="1024" />

    
    <glyph glyph-name="ellipsis-horiz" unicode="&#58902;" d="M514 468.5h-3.8c-45.4 0-82.6-37.2-82.6-82.6v-3.8c0-45.4 37.2-82.6 82.6-82.6h3.8c45.4 0 82.6 37.2 82.6 82.6v3.8c0 45.4-37.2 82.6-82.6 82.6zM874.2 468.4h-3.8c-45.4 0-82.6-37.2-82.6-82.6v-3.8c0-45.4 37.2-82.6 82.6-82.6h3.8c45.4 0 82.6 37.2 82.6 82.6v3.8c0 45.4-37.2 82.6-82.6 82.6zM152.4 465.9h-3.8c-45.4 0-82.6-37.2-82.6-82.6v-3.8c0-45.4 37.2-82.6 82.6-82.6h3.8c45.4 0 82.6 37.2 82.6 82.6v3.8c0 45.5-37.2 82.6-82.6 82.6z"  horiz-adv-x="1024" />

    
    <glyph glyph-name="ellipsis-verti" unicode="&#58903;" d="M425.6 386.3v-3.8c0-45.4 37.2-82.6 82.6-82.6h3.8c45.4 0 82.6 37.2 82.6 82.6v3.8c0 45.4-37.2 82.6-82.6 82.6h-3.8c-45.4 0-82.6-37.2-82.6-82.6zM425.7 746.5v-3.8c0-45.4 37.2-82.6 82.6-82.6h3.8c45.4 0 82.6 37.2 82.6 82.6v3.8c0 45.4-37.2 82.6-82.6 82.6h-3.8c-45.4 0-82.6-37.2-82.6-82.6zM428.2 24.7v-3.8c0-45.4 37.2-82.6 82.6-82.6h3.8c45.4 0 82.6 37.2 82.6 82.6v3.8c0 45.4-37.2 82.6-82.6 82.6h-3.8c-45.4 0-82.6-37.2-82.6-82.6z"  horiz-adv-x="1024" />

    
    <glyph glyph-name="bell" unicode="&#58904;" d="M892.6 218.4c-33.9 0-61.3 27.5-61.3 61.3v168.7c0 154.2-110.7 283.8-256.5 313.3 0.1 1.7 0.2 3.4 0.2 5.1 0 34.8-28.2 63-63 63s-63-28.2-63-63c0-1.7 0.1-3.3 0.2-4.9-146.2-29.3-257.2-159.1-257.2-313.5v-168.3c0-34.1-27.6-61.7-61.7-61.7-35.2 0-63.9-28.8-63.9-63.9 0-35.2 28.8-63.9 63.9-63.9h762.2c35.2 0 63.9 28.8 63.9 63.9 0.1 35.2-28.7 63.9-63.8 63.9zM704.1 218.4h-384s-12.1-0.1-29.4-0.1c32.7 0 29.4 101.6 29.4 101.6v128.1c0 105.6 86.4 192 192 192s192-86.4 192-192v-128s-6.6-101.6 30.7-101.5c-14.8-0.3-30.7-0.1-30.7-0.1zM512-60.9c55.1 0 99.7 44.6 99.7 99.7h-199.4c0-55 44.6-99.7 99.7-99.7z"  horiz-adv-x="1024" />

    
    <glyph glyph-name="zoomout" unicode="&#58931;" d="M939.7 47.6l-155 154.9c46.7 65.1 74.3 144.9 74.3 231.2 0 219.1-177.7 396.8-396.8 396.8s-396.8-177.7-396.8-396.8 177.7-396.8 396.8-396.8c86.9 0 167.2 27.9 232.6 75.3l154.7-154.7c24.8-24.8 65.4-24.8 90.2 0 24.7 24.7 24.7 65.3 0 90.1zM192.5 433.7c0 149 120.8 269.7 269.7 269.7s269.7-120.8 269.7-269.7-120.7-269.7-269.7-269.7-269.7 120.7-269.7 269.7zM595.5 483.1h-264.3c-27.2 0-49.4-22.2-49.4-49.4s22.2-49.4 49.4-49.4h264.3c27.2 0 49.4 22.2 49.4 49.4s-22.2 49.4-49.4 49.4z"  horiz-adv-x="1024" />

    
    <glyph glyph-name="zoomin" unicode="&#58932;" d="M939.7 47.6l-155 154.9c46.7 65.1 74.3 144.9 74.3 231.2 0 219.1-177.7 396.8-396.8 396.8s-396.8-177.7-396.8-396.8 177.7-396.8 396.8-396.8c86.9 0 167.2 27.9 232.6 75.3l154.7-154.7c24.8-24.8 65.4-24.8 90.2 0 24.7 24.7 24.7 65.3 0 90.1zM192.5 433.7c0 149 120.8 269.7 269.7 269.7s269.7-120.8 269.7-269.7-120.7-269.7-269.7-269.7-269.7 120.7-269.7 269.7zM595.5 483.1h-82.8v82.8c0 27.2-22.2 49.4-49.4 49.4s-49.4-22.2-49.4-49.4v-82.8h-82.8c-27.2 0-49.4-22.2-49.4-49.4s22.2-49.4 49.4-49.4h82.8v-82.8c0-27.2 22.2-49.4 49.4-49.4s49.4 22.2 49.4 49.4v82.8h82.8c27.2 0 49.4 22.2 49.4 49.4s-22.2 49.4-49.4 49.4z"  horiz-adv-x="1024" />

    
    <glyph glyph-name="check" unicode="&#58933;" d="M937.6 705.9c-25 25-65.4 25-90.4 0L339.9 198.7 176.1 362.5c-24.8 24.8-65 24.8-89.8 0-24.8-24.8-24.8-65 0-89.8l198.8-198.8c2.5-4.1 5.5-7.9 9.1-11.4 25-25 65.4-25 90.4 0l0.9 0.9 552.2 552.2c24.9 24.9 24.9 65.4-0.1 90.3z"  horiz-adv-x="1024" />

    
    <glyph glyph-name="file" unicode="&#58934;" d="M801.6 831.9h-578.1c-52.5 0-95.5-43-95.5-95.5v-704.4c0-52.5 43-95.5 95.5-95.5h383l290.5 288.4v511.5c0.1 52.5-42.9 95.5-95.4 95.5zM224.9 44v680.4c0 6.6 5.4 12 12 12h551c6.6 0 12-5.4 12-12v-404.4h-237.3c-6.6 0-12.9-1.4-18.6-3.8-18.5-6.4-31.7-23.9-31.7-44.6v-239.6h-275.4c-6.6 0-12 5.4-12 12zM606.6 32v192.9h193.4l-193.4-192.9z"  horiz-adv-x="1024" />

    
    <glyph glyph-name="warning" unicode="&#58935;" d="M936.8 178.8l-335.4 538.7c-20.1 32.2-53.7 51.5-90.1 51.5-36.3 0-70-19.2-90.1-51.5l-335.4-538.7c-23.2-37.3-24.3-84.4-2.9-123 19.6-35.3 54.4-56.4 93-56.4h670.8c38.6 0 73.4 21.1 93 56.4 21.4 38.6 20.3 85.7-2.9 123zM852.3 104.4c-0.8-1.5-3-4.9-5.6-4.9h-670.8c-2.5 0-4.7 3.4-5.6 4.9-2.8 5.1-4.5 13.9 0.4 21.6l335.4 538.7c1.7 2.7 3.6 4.3 5.2 4.3s3.5-1.6 5.2-4.3l335.4-538.7c4.9-7.8 3.2-16.5 0.4-21.6zM511.8 300.6c30.7 0 55.7 25.1 55.7 55.7v112c0 30.7-25.1 55.7-55.7 55.7-30.7 0-55.7-25.1-55.7-55.7v-112c-0.1-30.7 25-55.7 55.7-55.7zM456 206.8c0-30.928 25.072-56 56-56s56 25.072 56 56c0 30.928-25.072 56-56 56-30.928 0-56-25.072-56-56z"  horiz-adv-x="1024" />

    
    <glyph glyph-name="info" unicode="&#58936;" d="M511.9 437.7c35.1 0 63.8-28.7 63.8-63.8v-148.8c0-35.1-28.7-63.8-63.8-63.8-35.1 0-63.8 28.7-63.8 63.8v148.8c0 35.1 28.7 63.8 63.8 63.8zM448.1 545.1c0-0 0-0 0-0 0-35.401 28.699-64.1 64.1-64.1 35.401 0 64.1 28.699 64.1 64.1 0 0 0 0 0 0-0 35.401-28.699 64.1-64.1 64.1-35.401 0-64.1-28.699-64.1-64.1zM955.7 384.8c0 245.6-199.1 444.7-444.7 444.7s-444.7-199-444.7-444.6 199.1-444.7 444.7-444.7 444.7 199 444.7 444.6zM831.3 384.8c0-176.9-143.4-320.3-320.3-320.3s-320.3 143.5-320.3 320.4 143.4 320.3 320.3 320.3 320.3-143.5 320.3-320.4z"  horiz-adv-x="1024" />

    
    <glyph glyph-name="question" unicode="&#58937;" d="M511 829.5c-245.6 0-444.7-199.1-444.7-444.7s199.1-444.6 444.7-444.6 444.7 199.1 444.7 444.7-199.1 444.6-444.7 444.6zM511 64.5c-176.9 0-320.3 143.4-320.3 320.3s143.4 320.4 320.3 320.4 320.3-143.4 320.3-320.3-143.4-320.4-320.3-320.4zM512.3 618.9c-64.2 0-119.4-38.5-143.8-93.7-13.2-29.9 8.7-63.6 41.4-64h1.8c18.1-0.2 34.5 10.4 42.1 26.8 10.7 22.8 34.3 38.4 61.5 37.2 33-1.5 59.8-28.3 61.3-61.3 1.7-37-27.8-67.5-64.3-67.5h-0.3c-25.4 0-46.2-20.8-46.2-46.2v-34c0-25.4 20.8-46.2 46.2-46.2 23.8 0 43.5 18.3 45.9 41.4 64 19.6 111 79 111.5 149.2 0.6 87.4-70 158.3-157.1 158.3zM465.7 196.7c0-0 0-0 0-0 0-25.571 20.729-46.3 46.3-46.3 25.571 0 46.3 20.729 46.3 46.3 0 0 0 0 0 0 0 25.571-20.729 46.3-46.3 46.3-25.571 0-46.3-20.729-46.3-46.3 0-0 0-0 0-0z"  horiz-adv-x="1024" />

    
    <glyph glyph-name="minus" unicode="&#58940;" d="M892.8 447.8h-761c-35.2 0-63.9-28.8-63.9-63.9 0-35.2 28.8-63.9 63.9-63.9h761c35.2 0 63.9 28.8 63.9 63.9 0.1 35.1-28.7 63.9-63.9 63.9z"  horiz-adv-x="1024" />

    
    <glyph glyph-name="check-circle" unicode="&#58941;" d="M511 829.5c-245.6 0-444.7-199-444.7-444.6S265.4-59.8 511-59.8s444.7 199 444.7 444.6S756.6 829.5 511 829.5z m0-765c-176.9 0-320.3 143.5-320.3 320.4S334.1 705.2 511 705.2s320.3-143.5 320.3-320.4S687.9 64.5 511 64.5zM702.3 537.3c-24.1 24.1-63.6 24.1-87.7 0L442.9 365.6l-31.5 31.5c-24.9 24.9-65.5 24.9-90.4 0-24.9-24.9-24.9-65.5 0-90.4l75.1-75.1 0.1-0.1 0.1-0.1c6.1-6.1 13.1-10.6 20.6-13.6 23.1-9.5 50.8-4.8 69.5 13.9 3.3 3.3 6.2 7 8.7 10.8l207.2 207.2c24.1 24 24.1 63.5 0 87.6z"  horiz-adv-x="1024" />

    
    <glyph glyph-name="search" unicode="&#58942;" d="M937.4 49.9l-230 230c38.9 56.6 61.7 125.2 61.7 199.1 0 194.4-157.6 352-352 352S65 673.4 65 479s157.6-352 352-352c74.3 0 143.2 23 200 62.3l229.9-229.9c25-25 65.5-25 90.5 0 25 24.9 25 65.5 0 90.5zM417 254.8c-123.8 0-224.1 100.3-224.1 224.1S293.3 703.1 417 703.1 641.2 602.7 641.2 479 540.8 254.8 417 254.8z"  horiz-adv-x="1024" />

    
    <glyph glyph-name="clock" unicode="&#58943;" d="M511 828.5c-245.6 0-444.7-199.1-444.7-444.7S265.4-60.8 511-60.8s444.7 199.1 444.7 444.7S756.6 828.5 511 828.5z m0-765c-176.9 0-320.3 143.4-320.3 320.3S334.1 704.2 511 704.2s320.3-143.4 320.3-320.3S687.9 63.5 511 63.5zM706 413.9H558v148c0 25.3-20.7 46.1-46.1 46.1H510c-25.3 0-46.1-20.7-46.1-46.1v-196c0-25.3 20.7-46.1 46.1-46.1h196c25.3 0 46.1 20.7 46.1 46.1v1.9c0 25.4-20.8 46.1-46.1 46.1z"  horiz-adv-x="1024" />

    
    <glyph glyph-name="time" unicode="&#58944;" d="M919.3 779.2l-80.6-80.6C758 779.9 646.2 830.4 522.6 830.6 276.4 831.1 75.3 630.9 74.9 384.7c-0.4-247.1 199.8-447.6 446.8-447.6 131.9 0 250.4 57.1 332.2 148 37.2 41.4 7.9 107.4-47.8 107.9-18.5 0.2-36.2-7.5-48.5-21.2-58.1-64.5-142.3-105.1-235.9-105.1-176.1 0-318.8 143.5-317.3 320 1.5 176.2 145.1 316.6 321.4 314.4 86.6-1.1 164.8-36.9 221.4-94.1l-79.6-79.6c-11.8-11.8-3.4-31.9 13.2-31.9h251.7c10.3 0 18.7 8.3 18.7 18.7V766c0 16.6-20.1 25-31.9 13.2zM511.9 608H510c-25.3 0-46.1-20.7-46.1-46.1v-196c0-25.3 20.7-46.1 46.1-46.1h196c25.3 0 46.1 20.7 46.1 46.1v1.9c0 25.4-20.8 46.1-46.1 46.1H558v148c0 25.3-20.7 46.1-46.1 46.1z"  horiz-adv-x="1024" />

    
    <glyph glyph-name="key" unicode="&#58945;" d="M712 828.2c-127.3 0-230.5-103.2-230.5-230.5 0-40 10.2-77.7 28.2-110.5L102.1 79.6c-24.6-24.6-24.6-64.9 0-89.5 24.6-24.6 64.9-24.6 89.5 0l16.8 16.8 59.9-59.9c9.2-9.2 24.4-9.2 33.6 0l55.9 55.9c9.2 9.2 9.2 24.4 0 33.6l-59.9 59.9 46.3 46.3 59.9-59.9c9.2-9.2 24.4-9.2 33.6 0l55.9 55.9c9.2 9.2 9.2 24.4 0 33.6l-59.9 59.9 164.9 164.9c33.5-19 72.2-29.8 113.4-29.8 127.3 0 230.5 103.2 230.5 230.5S839.2 828.2 712 828.2z m0-334.9c-57.7 0-104.5 46.8-104.5 104.5S654.2 702.3 712 702.3s104.5-46.8 104.5-104.5S769.7 493.3 712 493.3z"  horiz-adv-x="1024" />

    
    <glyph glyph-name="setting" unicode="&#58946;" d="M908.2 229.9L814.4 284c10.6 31.7 16.3 65.5 16.3 100.7 0 35.1-5.7 69-16.2 100.6l93.7 54.1c12 6.9 16.2 22.5 9.2 34.5l-38.8 67.2c-6.9 12-22.5 16.2-34.5 9.2l-93.8-54.2c-44.9 50.5-105.5 86.6-174.3 100.6V805.1c0 13.9-11.4 25.2-25.2 25.2h-77.5c-13.9 0-25.2-11.4-25.2-25.2v-108.4c-68.7-14.1-129.2-50.2-174-100.7l-94 54.3c-12 6.9-27.5 2.8-34.5-9.2l-38.8-67.2c-6.9-12-2.8-27.5 9.2-34.5l94-54.3c-10.5-31.6-16.2-65.3-16.2-100.4s5.7-69 16.2-100.6l-94-54.2c-12-6.9-16.2-22.5-9.2-34.5l38.8-67.2c6.9-12 22.5-16.2 34.5-9.2l94.2 54.4C319 123 379.5 86.9 448.1 72.8v-108.6c0-13.9 11.4-25.2 25.2-25.2h77.5c13.9 0 25.2 11.4 25.2 25.2V72.7c68.7 14 129.3 50.1 174.2 100.5l93.9-54.2c12-6.9 27.5-2.8 34.5 9.2l38.8 67.2c7 12 2.8 27.6-9.2 34.5z m-395.9-36.2c-105.5 0-191 85.6-191 191s85.4 191.1 191 191.1 191-85.6 191-191-85.5-191.1-191-191.1z"  horiz-adv-x="1024" />

    
    <glyph glyph-name="marker" unicode="&#58947;" d="M511.3 826.2c-178.3 0-322.8-144.5-322.8-322.8 0-70.4 22.6-135.6 60.9-188.7 45.3-62.7 229.1-356.3 229.1-356.3 18.9-18.9 49.9-18.9 68.8 0 0 0 181.1 294.3 225.8 356.3 38.3 53.1 60.9 118.2 60.9 188.7 0.1 178.3-144.4 322.8-322.7 322.8z m1-514.4c-105.8 0-191.5 85.8-191.5 191.5s85.8 191.5 191.5 191.5S703.8 609 703.8 503.3s-85.7-191.5-191.5-191.5z"  horiz-adv-x="1024" />

    
    <glyph glyph-name="map" unicode="&#58948;" d="M907.9 766.7l-240.9 60.3c-8 2-16.1 2.4-23.9 1.2-7.9 1-16 0.3-24-2l-222.1-65.5c-4.9 2.8-10.2 4.9-15.9 6.3l-241 60.3c-18.2 4.7-36.8 0.9-51.2-10.3-14.1-11-22.1-27.6-22.1-45.7v-708.3c0-28.7 20.6-54.7 49.1-61.8l241-60.3c5-1.3 10.1-1.9 15.1-1.9 1.6 0 3.2 0.1 4.8 0.2 3.6-0.7 7.4-1.1 11.1-1.1 5.6 0 11.3 0.8 17 2.5l223.4 65.8c4.5-2.4 9.4-4.3 14.5-5.6l241-60.3c5-1.3 10.1-1.9 15.1-1.9 13.1 0 25.7 4.2 36.1 12.3 14.1 11 22.1 27.6 22.1 45.7v708.3c-0.1 28.7-20.7 54.7-49.2 61.8zM430.1 666.3l163.5 48.2v-614l-163.5-48.2v614zM166.8 717.7l163.2-40.9v-626.1l-163.2 40.9v626.1zM857 50.2l-163.2 40.9v626.1l163.2-40.8v-626.2z"  horiz-adv-x="1024" />

    
    <glyph glyph-name="dotspin" unicode="&#58949;" d="M754.1 609.9m-109.4 0a109.4 109.4 0 1 1 218.8 0 109.4 109.4 0 1 1-218.8 0ZM512.3 709.5m-93.7 0a93.7 93.7 0 1 1 187.4 0 93.7 93.7 0 1 1-187.4 0ZM269.6 609.9m-78 0a78 78 0 1 1 156 0 78 78 0 1 1-156 0ZM170.5 368.4m-61.5 0a61.5 61.5 0 1 1 123 0 61.5 61.5 0 1 1-123 0ZM270.1 125.9m-61.5 0a61.5 61.5 0 1 1 123 0 61.5 61.5 0 1 1-123 0ZM511.8 26.3m-61.5 0a61.5 61.5 0 1 1 123 0 61.5 61.5 0 1 1-123 0ZM754.1 125.9m-61.5 0a61.5 61.5 0 1 1 123 0 61.5 61.5 0 1 1-123 0ZM854.1 367.9m-61.5 0a61.5 61.5 0 1 1 123 0 61.5 61.5 0 1 1-123 0Z"  horiz-adv-x="1024" />

    
    <glyph glyph-name="bars" unicode="&#58950;" d="M893.1 447.8h-763c-35.2 0-63.9-28.8-63.9-63.9 0-35.2 28.8-63.9 63.9-63.9h763c35.2 0 63.9 28.8 63.9 63.9 0 35.1-28.8 63.9-63.9 63.9zM892.8 160.1h-763c-35.2 0-63.9-28.8-63.9-63.9 0-35.2 28.8-63.9 63.9-63.9h763c35.2 0 63.9 28.8 63.9 63.9 0 35.2-28.7 63.9-63.9 63.9zM893.8 732.6h-763c-35.2 0-63.9-28.8-63.9-63.9 0-35.2 28.8-63.9 63.9-63.9h763c35.2 0 63.9 28.8 63.9 63.9 0 35.2-28.8 63.9-63.9 63.9z"  horiz-adv-x="1024" />

    
    <glyph glyph-name="list" unicode="&#58951;" d="M892.8 732.6H322.6c-35.1 0-63.9-28.8-63.9-63.9 0-35.1 28.8-63.9 63.9-63.9h570.2c35.1 0 63.9 28.8 63.9 63.9 0 35.1-28.8 63.9-63.9 63.9zM892.8 447.6H322.6c-35.1 0-63.9-28.8-63.9-63.9 0-35.1 28.8-63.9 63.9-63.9h570.2c35.1 0 63.9 28.8 63.9 63.9 0 35.1-28.8 63.9-63.9 63.9zM892.8 160.1H322.6c-35.1 0-63.9-28.8-63.9-63.9 0-35.1 28.8-63.9 63.9-63.9h570.2c35.1 0 63.9 28.8 63.9 63.9 0 35.1-28.8 63.9-63.9 63.9zM130.1 731.6c-34.7 0-63-28.4-63-63v-1.8c0-34.7 28.4-63 63-63 34.7 0 63 28.4 63 63v1.8c0 34.6-28.3 63-63 63zM130.1 446.6c-34.7 0-63-28.4-63-63v-1.8c0-34.7 28.4-63 63-63 34.7 0 63 28.4 63 63v1.8c0 34.6-28.3 63-63 63zM130.1 159.1c-34.7 0-63-28.4-63-63v-1.8c0-34.7 28.4-63 63-63 34.7 0 63 28.4 63 63v1.8c0 34.6-28.3 63-63 63z"  horiz-adv-x="1024" />

    
    <glyph glyph-name="progress" unicode="&#58952;" d="M828.5 512h-635C123 512 65.7 454.8 65.7 384.2v-0.4c0-70.3 57-127.3 127.3-127.3H828.4c70.6 0 127.8 57.2 127.8 127.8 0.1 70.5-57.2 127.7-127.7 127.7z m67.6-127.9c0-35.2-28.8-64.1-64.1-64.1H622c10.9 18.7 17.1 40.5 17.1 63.7 0 23.5-6.4 45.6-17.5 64.5H832c35.3 0 64.1-28.9 64.1-64.1z"  horiz-adv-x="1024" />

    
    <glyph glyph-name="share-alt" unicode="&#58953;" d="M798.5 258.2c-46.1 0-87.6-19.6-116.8-50.9L383.6 355.1c1.6 9 2.4 18.2 2.4 27.6 0 9.9-0.9 19.6-2.6 29l298.4 149.7c29.1-30.9 70.4-50.3 116.2-50.3 88.1 0 159.5 71.4 159.5 159.5S886.1 830.1 798 830.1s-159.5-71.4-159.5-159.5c0-8.4 0.6-16.6 1.9-24.6L339.7 495.1c-28.9 29.1-68.9 47.1-113.1 47.1-88.1 0-159.6-71.4-159.6-159.5s71.4-159.5 159.5-159.5c44.7 0 85.1 18.4 114.1 48.1l300.1-148.7c-1.2-7.8-1.8-15.7-1.8-23.8 0-88.1 71.4-159.5 159.5-159.5s159.5 71.4 159.5 159.5-71.4 159.4-159.4 159.4z m-0.5 478.7c36.6 0 66.3-29.7 66.3-66.3 0-36.6-29.7-66.3-66.3-66.3-36.6 0-66.3 29.7-66.3 66.3 0 36.6 29.7 66.3 66.3 66.3zM226.5 316.3c-36.6 0-66.3 29.7-66.3 66.3 0 36.6 29.7 66.3 66.3 66.3 36.6 0 66.3-29.7 66.3-66.3 0.1-36.6-29.6-66.3-66.3-66.3z m572-283.9c-36.6 0-66.3 29.7-66.3 66.3 0 36.6 29.7 66.3 66.3 66.3 36.6 0 66.3-29.7 66.3-66.3 0-36.6-29.7-66.3-66.3-66.3z"  horiz-adv-x="1024" />

    
    <glyph glyph-name="lock" unicode="&#58954;" d="M770.3 512.2h-3.1v62.4c0 140.9-114.2 255.1-255.1 255.1C371.2 829.7 257 715.5 257 574.6v-62.4h-1.3c-69.8 0-126.9-57.1-126.9-126.9v-319.5c0-69.8 57.1-126.9 126.9-126.9h514.7c69.8 0 126.9 57.1 126.9 126.9V385.3c-0.2 69.8-57.3 126.9-127 126.9z m-386.2 64c0 70.7 57.3 128 128 128s128-57.3 128-128v-64h-256v64z m385-509.4c0-1.4-1.1-2.6-2.6-2.6h-507c-1.4 0-2.6 1.1-2.6 2.6V381.3c0 1.4 1.1 2.6 2.6 2.6h507.1c1.4 0 2.6-1.1 2.6-2.6v-314.5z"  horiz-adv-x="1024" />

    
    <glyph glyph-name="toggle-on" unicode="&#58955;" d="M705.3 640h-387c-140.3 0-255-114.8-255-255 0-140.3 114.8-255 255-255h387c140.3 0 255 114.8 255 255 0.1 140.3-114.7 255-255 255zM707.5 223.2c-88.9 0-160.9 72-160.9 160.9s72 160.9 160.9 160.9 160.9-72 160.9-160.9-72.1-160.9-160.9-160.9z"  horiz-adv-x="1024" />

    
    <glyph glyph-name="toggle-off" unicode="&#58956;" d="M705.3 640h-387c-140.3 0-255-114.8-255-255 0-19.8 2.3-39 6.6-57.5 5.2-22.4 13.4-43.7 24.1-63.4C137.3 184.4 221.8 130 318.4 130h387c140.3 0 255 114.8 255 255 0 140.3-114.8 255-255.1 255zM314.4 223.2c-88.9 0-160.9 72-160.9 160.9S225.5 545 314.4 545s160.9-72 160.9-160.9-72.1-160.9-160.9-160.9z m553.9 160.9c0-88.5-72.4-160.9-160.9-160.9H506.9c36.4 43.6 58.4 99.6 58.4 160.9s-22 117.3-58.4 160.9h200.6c88.4 0 160.8-72.4 160.8-160.9z"  horiz-adv-x="1024" />

    
    <glyph glyph-name="share" unicode="&#58957;" d="M904.7 298.1c-27.6 0-50-22.4-50-50v-139.6c0-16.6-11.6-30.7-25.2-30.7h-639c-13.7 0-25.2 14.1-25.2 30.7v467.3c0 16.6 11.6 30.7 25.2 30.7h142.2c27.6 0 50 22.4 50 50s-22.4 50-50 50h-142.2c-69.1 0-125.2-58.6-125.2-130.7v-467.4c0-72.1 56.2-130.7 125.2-130.7h639c69.1 0 125.2 58.6 125.2 130.7v139.7c0 27.6-22.4 50-50 50zM337.2 221.4c113.8 201.5 216.1 250.4 362.5 244.5v-126.6c0-19.9 24.1-29.8 38.2-15.8l213 213.1c8.7 8.7 8.7 22.8 0.1 31.6l-213.2 213c-14.1 14.1-38.1 4.1-38.1-15.8v-125.7c-57.3 1.3-362.6-10.8-384.6-411.6-0.7-12.4 15.9-17.6 22.1-6.7z"  horiz-adv-x="1024" />

    
    <glyph glyph-name="play" unicode="&#58963;" d="M185-60.9c-17.6 0-35.2 4.8-51 14.3-29.8 18-47.7 49.6-47.7 84.5V730.6c0 35 17.9 66.6 47.9 84.6s66.4 18.9 97.2 2.5l654.4-349.1c32.3-17.3 52.4-50.7 52.3-87.4-0.1-36.7-20.4-70-52.8-87.1L231-49.5c-14.6-7.6-30.3-11.4-46-11.4z m27.4 746V83l568.8 298.7-568.8 303.4z"  horiz-adv-x="1024" />

    
    <glyph glyph-name="next" unicode="&#58964;" d="M663.9 455.5l-427.9 349.3c-31.4 25.6-75.8 30.7-113.2 13-33.9-16.1-54.9-48.2-54.9-83.9v-700.2c0-35.7 21.1-67.9 55-84 14.8-7 30.7-10.4 46.4-10.4 24.1 0 47.9 8 66.8 23.6l427.9 351c21.8 17.9 34.2 43.7 34.2 70.9 0.1 27.1-12.5 52.9-34.3 70.7zM192.9 89v589.6l360.3-294.1-360.3-295.5zM891.3 827.7c-35.2 0-64-28.8-64-64v-759.1c0-35.2 28.8-64 64-64s64 28.8 64 64v759c0 35.2-28.8 64.1-64 64.1z"  horiz-adv-x="1024" />

    
    <glyph glyph-name="previous" unicode="&#58965;" d="M324.9 384.7c0-27.2 12.4-53 34.2-70.9l427.9-351c19-15.6 42.7-23.6 66.8-23.6 15.7 0 31.6 3.4 46.4 10.4 33.9 16.1 55 48.2 55 84V733.8c0 35.7-21 67.8-54.9 83.9-37.4 17.7-81.8 12.7-113.2-13L359.3 455.5c-21.8-17.8-34.3-43.6-34.4-70.8z m145.1-0.2l360.3 294.1V89L470 384.5zM131.9 827.7c35.2 0 64-28.8 64-64v-759.1c0-35.2-28.8-64-64-64s-64 28.8-64 64v759c0 35.2 28.8 64.1 64 64.1z"  horiz-adv-x="1024" />

    
    <glyph glyph-name="stop" unicode="&#58966;" d="M721.9 828.7c-80.7 0-146.3-65.6-146.3-146.3v-595.5c0-80.7 65.6-146.3 146.3-146.3s146.3 65.6 146.3 146.3v595.5c0 80.6-65.6 146.3-146.3 146.3zM768.2 86.8c0-25.5-20.8-46.3-46.3-46.3s-46.3 20.8-46.3 46.3v595.6c0 25.5 20.8 46.3 46.3 46.3s46.3-20.8 46.3-46.3v-595.6zM301.2 828.5c-80.7 0-146.3-65.6-146.3-146.3v-595.5c0-80.7 65.6-146.3 146.3-146.3s146.3 65.6 146.3 146.3v595.5c0 80.7-65.6 146.3-146.3 146.3zM347.5 86.7c0-25.5-20.8-46.3-46.3-46.3s-46.3 20.8-46.3 46.3v595.5c0 25.5 20.8 46.3 46.3 46.3s46.3-20.8 46.3-46.3v-595.5z"  horiz-adv-x="1024" />

    
    <glyph glyph-name="arrow-rotate-left" unicode="&#58968;" d="M96.4 779.1l80.6-80.6c80.7 81.3 192.5 131.8 316.1 132 246.2 0.5 447.3-199.7 447.7-445.9C941.2 137.5 741-63 494-63c-131.9 0-250.4 57.1-332.2 148-37.2 41.4-7.9 107.4 47.8 107.9 18.5 0.2 36.2-7.5 48.5-21.2 58.1-64.5 142.3-105.1 235.9-105.1 176.1 0 318.8 143.5 317.3 320-1.5 176.2-145.1 316.6-321.4 314.4-86.6-1.1-164.8-36.9-221.4-94.1l79.6-79.6c11.8-11.8 3.4-31.9-13.2-31.9H83.2c-10.3 0-18.7 8.3-18.7 18.7V765.9c0 16.6 20.1 25 31.9 13.2z"  horiz-adv-x="1024" />

    
    <glyph glyph-name="arrow-rotate-right" unicode="&#58969;" d="M940.8 765.9v-251.8c0-10.4-8.4-18.7-18.7-18.7H670.4c-16.6 0-25 20.1-13.2 31.9l79.6 79.6c-56.6 57.2-134.8 93-221.4 94.1-176.3 2.2-319.9-138.2-321.4-314.4-1.5-176.5 141.2-320 317.3-320 93.6 0 177.8 40.6 235.9 105.1 12.3 13.7 30 21.4 48.5 21.2 55.7-0.5 85-66.5 47.8-107.9-81.8-90.9-200.3-148-332.2-148-247 0-447.2 200.5-446.8 447.6C64.9 630.8 266 831 512.2 830.5c123.6-0.2 235.4-50.7 316.1-132l80.6 80.6c11.8 11.8 31.9 3.4 31.9-13.2z"  horiz-adv-x="1024" />

    
    <glyph glyph-name="undo" unicode="&#58970;" d="M76 432.3l294.8-294.9c19.5-19.4 52.8-5.6 52.8 21.9V334.5c202.5 8.2 344.1-59.5 501.6-338.3 8.5-15 31.5-7.9 30.6 9.3-30.5 554.7-453 571.4-532.3 569.6v174c0 27.5-33.2 41.3-52.7 21.8L75.9 476c-12-12.1-12-31.6 0.1-43.7z"  horiz-adv-x="1024" />

    
    <glyph glyph-name="redo" unicode="&#58971;" d="M946.8 476L651.9 770.9c-19.5 19.5-52.7 5.7-52.7-21.8v-174c-79.3 1.8-501.8-14.9-532.3-569.6-0.9-17.2 22.1-24.3 30.6-9.3C255 275 396.6 342.7 599.1 334.5v-175.2c0-27.5 33.3-41.3 52.8-21.9l294.8 294.9c12.1 12.1 12.1 31.6 0.1 43.7z"  horiz-adv-x="1024" />

    
    <glyph glyph-name="home" unicode="&#58972;" d="M933.3 496l-101.3 85v122.6c0 35.4-29 64.4-64.4 64.4s-64.4-29-64.4-64.4v-14.5l-151.2 126.8c-3.7 3.1-7.7 5.7-11.8 7.8-0.4 0.2-0.9 0.4-1.3 0.7-0.2 0.1-0.5 0.2-0.7 0.4-22 10.5-49.1 8-68.8-8.6l-381.8-320.4c-26.9-22.6-30.5-63.1-7.9-90.1 20.2-24.1 54.8-29.5 81.2-14.1v-391.7c0-34.9 28.6-63.5 63.5-63.5h572.6c34.9 0 63.5 28.6 63.5 63.5v391.7c26.3-15 60.6-9.6 80.7 14.4 22.5 26.9 19 67.4-7.9 90zM733.4 489.5v-425.2h-125.9v223.4c0 53.1-43.4 96.5-96.5 96.5s-96.5-43.4-96.5-96.5v-223.4h-126.6v432.7l222.6 186.8 223.3-187.4c-0.2-2.2-0.4-4.5-0.4-6.9z"  horiz-adv-x="1024" />

    
    <glyph glyph-name="chevron-double-right" unicode="&#58973;" d="M802.5 384.7L465.8 721.4c-25 25-25 65.4 0 90.4 25 24.9 65.4 24.9 90.4 0l379.3-379.3c0.9-0.8 1.8-1.7 2.7-2.5 25-25 25-65.4 0-90.4L556.9-41.7c-25-25-65.4-25-90.4 0s-25 65.4 0 90.4l336 336zM420.5 384.5L83.8 721.2c-25 25-25 65.4 0 90.4 25 24.9 65.4 24.9 90.4 0l379.3-379.3c0.9-0.8 1.8-1.7 2.7-2.5 25-25 25-65.4 0-90.4L174.9-41.9c-25-25-65.4-25-90.4 0s-25 65.4 0 90.4l336 336z"  horiz-adv-x="1024" />

    
    <glyph glyph-name="chevron-double-up" unicode="&#58974;" d="M511.2 676.4L174.5 339.7c-25-25-65.4-25-90.4 0-24.9 25-24.9 65.4 0 90.4L463.4 809.4c0.8 0.9 1.7 1.8 2.5 2.7 25 25 65.4 25 90.4 0l381.3-381.3c25-25 25-65.4 0-90.4s-65.4-25-90.4 0l-336 336zM511.5 294.4L174.8-42.3c-25-25-65.4-25-90.4 0-24.9 25-24.9 65.4 0 90.4l379.3 379.3c0.8 0.9 1.7 1.8 2.5 2.7 25 25 65.4 25 90.4 0l381.3-381.3c25-25 25-65.4 0-90.4s-65.4-25-90.4 0l-336 336z"  horiz-adv-x="1024" />

    
    <glyph glyph-name="chevron-double-left" unicode="&#58975;" d="M219.5 384.7l336.7 336.7c25 25 25 65.4 0 90.4-25 24.9-65.4 24.9-90.4 0L86.5 432.5c-0.9-0.8-1.8-1.7-2.7-2.5-25-25-25-65.4 0-90.4l381.3-381.3c25-25 65.4-25 90.4 0s25 65.4 0 90.4l-336 336zM601.5 384.5l336.7 336.7c25 25 25 65.4 0 90.4-25 24.9-65.4 24.9-90.4 0L468.5 432.3c-0.9-0.8-1.8-1.7-2.7-2.5-25-25-25-65.4 0-90.4l381.3-381.3c25-25 65.4-25 90.4 0s25 65.4 0 90.4l-336 336z"  horiz-adv-x="1024" />

    
    <glyph glyph-name="chevron-double-down" unicode="&#58976;" d="M511.2 93.4L174.5 430.1c-25 25-65.4 25-90.4 0-24.9-25-24.9-65.4 0-90.4l379.3-379.3c0.8-0.9 1.7-1.8 2.5-2.7 25-25 65.4-25 90.4 0L937.6 339c25 25 25 65.4 0 90.4s-65.4 25-90.4 0l-336-336zM511.5 475.4L174.8 812.1c-25 25-65.4 25-90.4 0-24.9-25-24.9-65.4 0-90.4l379.3-379.3c0.8-0.9 1.7-1.8 2.5-2.7 25-25 65.4-25 90.4 0L937.9 721c25 25 25 65.4 0 90.4s-65.4 25-90.4 0l-336-336z"  horiz-adv-x="1024" />

    
    <glyph glyph-name="arrow-leftward" unicode="&#58977;" d="M892.2 448H411.3l268 268c24.9 24.9 24.9 65.5 0 90.4s-65.5 24.9-90.4 0L211.7 429.2C199.3 416.8 193 400.4 193 384s6.2-32.8 18.7-45.2c2-2 4.1-3.8 6.2-5.5l371.6-371.6c24.9-24.9 65.5-24.9 90.4 0s24.9 65.5 0 90.4l-268 268h480.2c35.2 0 63.9 28.8 63.9 63.9 0.1 35.2-28.7 64-63.8 64zM129.1 828C94 828 65.2 799.2 65.2 764.1V4c0-35.2 28.8-63.9 63.9-63.9 35.2 0 63.9 28.8 63.9 63.9V764.1c0 35.1-28.7 63.9-63.9 63.9z"  horiz-adv-x="1024" />

    
    <glyph glyph-name="arrow-rightward" unicode="&#58978;" d="M129 448h480.9l-268 268c-24.9 24.9-24.9 65.5 0 90.4s65.5 24.9 90.4 0l377.2-377.2c12.5-12.4 18.7-28.8 18.7-45.2s-6.2-32.8-18.7-45.2c-2-2-4.1-3.8-6.2-5.5L431.7-38.3c-24.9-24.9-65.5-24.9-90.4 0s-24.9 65.5 0 90.4l268 268H129.1c-35.2 0-63.9 28.8-63.9 63.9-0.1 35.2 28.7 64 63.8 64zM892.1 828c35.2 0 63.9-28.8 63.9-63.9V4c0-35.2-28.8-63.9-63.9-63.9-35.2 0-63.9 28.8-63.9 63.9V764.1c0 35.1 28.7 63.9 63.9 63.9z"  horiz-adv-x="1024" />

    
    <glyph glyph-name="arrow-upward" unicode="&#58979;" d="M446.6 2.4V483.3l-268-268c-24.9-24.9-65.5-24.9-90.4 0s-24.9 65.5 0 90.4l377.2 377.2c12.4 12.5 28.8 18.7 45.2 18.7 16.4 0 32.8-6.2 45.2-18.7 2-2 3.8-4.1 5.5-6.2l371.6-371.6c24.9-24.9 24.9-65.5 0-90.4s-65.5-24.9-90.4 0l-268 268v-480.2c0-35.2-28.8-63.9-63.9-63.9-35.2-0.1-64 28.7-64 63.8zM66.6 765.5c0 35.2 28.8 63.9 63.9 63.9h760.1c35.2 0 63.9-28.8 63.9-63.9 0-35.2-28.8-63.9-63.9-63.9H130.5c-35.1 0-63.9 28.7-63.9 63.9z"  horiz-adv-x="1024" />

    
    <glyph glyph-name="arrow-downward" unicode="&#58980;" d="M446.6 765.6v-480.9l-268 268c-24.9 24.9-65.5 24.9-90.4 0s-24.9-65.5 0-90.4l377.2-377.2c12.4-12.5 28.8-18.7 45.2-18.7 16.4 0 32.8 6.2 45.2 18.7 2 2 3.8 4.1 5.5 6.2l371.6 371.6c24.9 24.9 24.9 65.5 0 90.4s-65.5 24.9-90.4 0l-268-268V765.5c0 35.2-28.8 63.9-63.9 63.9-35.2 0.1-64-28.7-64-63.8zM66.6 2.5c0-35.2 28.8-63.9 63.9-63.9h760.1c35.2 0 63.9 28.8 63.9 63.9 0 35.2-28.8 63.9-63.9 63.9H130.5c-35.1 0-63.9-28.7-63.9-63.9z"  horiz-adv-x="1024" />

    
    <glyph glyph-name="delete" unicode="&#58993;" d="M913.5 670.2h-241v97.8c0 34.5-28.3 62.8-62.8 62.8h-196.4c-34.5 0-62.8-28.3-62.8-62.8v-97.8h-239.4c-25.8 0-46.9-21.1-46.9-46.9 0-25.8 21.1-46.9 46.9-46.9h81v-590.3c0-25.8 21.1-46.9 46.9-46.9h546.4c25.8 0 46.9 21.1 46.9 46.9 0 1.1-0.1 2.2-0.1 3.3v587.1h81.5c25.8 0 46.9 21.1 46.9 46.9-0.2 25.7-21.3 46.8-47.1 46.8zM448.1 739.9c0 0.1 0 0.1 0 0l128 0.1s0.1 0 0.1-0.1v-69.7h-128v69.7zM737 33h-450v543.5h450v-543.5zM420.8 128.2c27.4 0 49.8 22.4 49.8 49.8v252c0 27.4-22.4 49.8-49.8 49.8s-49.8-22.4-49.8-49.8v-252c0-27.4 22.4-49.8 49.8-49.8zM602.9 128.2c27.4 0 49.8 22.4 49.8 49.8v252c0 27.4-22.4 49.8-49.8 49.8s-49.8-22.4-49.8-49.8v-252c0-27.4 22.4-49.8 49.8-49.8z"  horiz-adv-x="1024" />

    
    <glyph glyph-name="alert" unicode="&#59331;" d="M193 100c0-17.7 14.3-32 32-32h574c17.7 0 32 14.3 32 32V333c0 176.2-142.8 319-319 319S193 509.2 193 333v-233z m72 233c0 136.4 110.6 247 247 247s247-110.6 247-247v-193H404V311c0 5.5-4.5 10-10 10h-44c-5.5 0-10-4.5-10-10v-171h-75V333zM216.9 585.5l39.6 39.6c3.1 3.1 3.1 8.2 0 11.3l-67.9 67.9c-3.1 3.1-8.2 3.1-11.3 0l-39.6-39.6c-3.1-3.1-3.1-8.2 0-11.3l67.9-67.9c3.1-3.1 8.1-3.1 11.3 0zM886.5 664.7l-39.6 39.6c-3.1 3.1-8.2 3.1-11.3 0l-67.9-67.9c-3.1-3.1-3.1-8.2 0-11.3l39.6-39.6c3.1-3.1 8.2-3.1 11.3 0l67.9 67.9c3.1 3.2 3.1 8.2 0 11.3zM832 4H192c-17.7 0-32-14.3-32-32v-24c0-4.4 3.6-8 8-8h688c4.4 0 8 3.6 8 8v24c0 17.7-14.3 32-32 32zM484 716h56c4.4 0 8 3.6 8 8V820c0 4.4-3.6 8-8 8h-56c-4.4 0-8-3.6-8-8v-96c0-4.4 3.6-8 8-8z"  horiz-adv-x="1024" />

    
    <glyph glyph-name="bulb" unicode="&#59332;" d="M632 8H392c-4.4 0-8-3.6-8-8v-32c0-17.7 14.3-32 32-32h192c17.7 0 32 14.3 32 32v32c0 4.4-3.6 8-8 8zM512 832c-181.1 0-328-146.9-328-328 0-121.4 66-227.4 164-284.1V104c0-17.7 14.3-32 32-32h264c17.7 0 32 14.3 32 32V219.9c98 56.7 164 162.7 164 284.1 0 181.1-146.9 328-328 328z m127.9-549.8L604 261.4V144H420V261.4l-35.9 20.8C305.4 327.7 256 411.5 256 504c0 141.4 114.6 256 256 256s256-114.6 256-256c0-92.5-49.4-176.3-128.1-221.8z"  horiz-adv-x="1024" />

    
    <glyph glyph-name="file-fill" unicode="&#59479;" d="M854.6 607.3c6-6 9.4-14.1 9.4-22.6V-32c0-17.7-14.3-32-32-32H192c-17.7 0-32 14.3-32 32V800c0 17.7 14.3 32 32 32h424.7c8.5 0 16.7-3.4 22.7-9.4l215.2-215.3zM790.2 570L602 758.2V570h188.2z"  horiz-adv-x="1024" />

    
    <glyph glyph-name="file-excel-fill" unicode="&#59480;" d="M854.6 607.3c6-6 9.4-14.1 9.4-22.6V-32c0-17.7-14.3-32-32-32H192c-17.7 0-32 14.3-32 32V800c0 17.7 14.3 32 32 32h424.7c8.5 0 16.7-3.4 22.7-9.4l215.2-215.3zM790.2 570L602 758.2V570h188.2zM575.341 418.161l-61.216-102.307-61.839 102.351a12 12 0 0 1-10.27 5.795h-38.437a12 12 0 0 1-6.406-1.853c-5.604-3.538-7.279-10.949-3.741-16.553l82.333-130.422-83.449-132.787a12 12 0 0 1-1.84-6.385c0-6.627 5.373-12 12-12h34.466a12 12 0 0 1 10.208 5.692l62.707 101.474 62.29-101.445A12 12 0 0 1 582.375 124h37.486a12 12 0 0 1 6.484 1.903c5.577 3.58 7.195 11.004 3.614 16.58l-83.831 130.551 85.296 132.47a12 12 0 0 1 1.91 6.496c0 6.627-5.372 12-12 12h-35.695a12 12 0 0 1-10.297-5.839z"  horiz-adv-x="1024" />

    
    <glyph glyph-name="file-markdown-fill" unicode="&#59481;" d="M854.6 607.3c6-6 9.4-14.1 9.4-22.6V-32c0-17.7-14.3-32-32-32H192c-17.7 0-32 14.3-32 32V800c0 17.7 14.3 32 32 32h424.7c8.5 0 16.7-3.4 22.7-9.4l215.2-215.3zM790.2 570L602 758.2V570h188.2zM426.13 295.07l59.11-132.975a16.003 16.003 0 0 1 14.624-9.503h24.055c6.33 0 12.065 3.732 14.63 9.518l59.109 133.35v-157.458c0-8.838 7.165-16.003 16.003-16.003h27.337c8.838 0 16.003 7.165 16.003 16.003V409.998c0 8.838-7.165 16.003-16.003 16.003h-34.746a16.003 16.003 0 0 1-14.673-9.616l-79.473-182.587-79.473 182.587A16.003 16.003 0 0 1 417.96 426h-34.958c-8.838 0-16.003-7.165-16.003-16.003v-271.996c0-8.838 7.165-16.003 16.003-16.003h27.126c8.838 0 16.003 7.165 16.003 16.003V295.071z"  horiz-adv-x="1024" />

    
    <glyph glyph-name="file-text-fill" unicode="&#59482;" d="M854.6 607.3c6-6 9.4-14.1 9.4-22.6V-32c0-17.7-14.3-32-32-32H192c-17.7 0-32 14.3-32 32V800c0 17.7 14.3 32 32 32h424.7c8.5 0 16.7-3.4 22.7-9.4l215.2-215.3zM790.2 570L602 758.2V570h188.2zM320 414a8 8 0 0 1-8-8v-48a8 8 0 0 1 8-8h384a8 8 0 0 1 8 8v48a8 8 0 0 1-8 8H320z m0-136a8 8 0 0 1-8-8v-48a8 8 0 0 1 8-8h184a8 8 0 0 1 8 8v48a8 8 0 0 1-8 8H320z"  horiz-adv-x="1024" />

    
    <glyph glyph-name="file-ppt-fill" unicode="&#59483;" d="M854.6 607.3c6-6 9.4-14.1 9.4-22.6V-32c0-17.7-14.3-32-32-32H192c-17.7 0-32 14.3-32 32V800c0 17.7 14.3 32 32 32h424.7c8.5 0 16.7-3.4 22.7-9.4l215.2-215.3zM790.2 570L602 758.2V570h188.2zM468.526 136v91.537h59.277c60.57 0 100.197 39.655 100.197 98.125C628 383.884 588.424 424 528.016 424H424c-6.627 0-12-5.373-12-12v-276c0-6.627 5.373-12 12-12h32.526c6.628 0 12 5.373 12 12z m0 139.326h34.907c47.815 0 67.186 12.937 67.186 50.336 0 32.045-18.117 50.121-49.87 50.121h-52.223v-100.457z"  horiz-adv-x="1024" />

    
    <glyph glyph-name="file-unknown-fill" unicode="&#59484;" d="M854.6 607.3c6-6 9.4-14.1 9.4-22.6V-32c0-17.7-14.3-32-32-32H192c-17.7 0-32 14.3-32 32V800c0 17.7 14.3 32 32 32h424.7c8.5 0 16.7-3.4 22.7-9.4l215.2-215.3zM790.2 570L602 758.2V570h188.2zM402 347c0-5.4 4.4-9.5 9.8-9.5h32.4c5.4 0 9.8 4.2 9.8 9.4 0 28.2 25.8 51.6 58 51.6s58-23.4 58-51.5c0-25.3-21-47.2-49.3-50.9-19.3-2.8-34.5-20.3-34.7-40.1v-32c0-5.5 4.5-10 10-10h32c5.5 0 10 4.5 10 10v12.2c0 6 4 11.5 9.7 13.3 44.6 14.4 75 54 74.3 98.9-0.8 55.5-49.2 100.8-108.5 101.6-61.4 0.7-111.5-45.6-111.5-103z m110-227c17.673 0 32 14.327 32 32 0 17.673-14.327 32-32 32-17.673 0-32-14.327-32-32 0-17.673 14.327-32 32-32z"  horiz-adv-x="1024" />

    
    <glyph glyph-name="file-word-fill" unicode="&#59485;" d="M854.6 607.3c6-6 9.4-14.1 9.4-22.6V-32c0-17.7-14.3-32-32-32H192c-17.7 0-32 14.3-32 32V800c0 17.7 14.3 32 32 32h424.7c8.5 0 16.7-3.4 22.7-9.4l215.2-215.3zM790.2 570L602 758.2V570h188.2zM512 329.905l52.814-197.012a12 12 0 0 1 11.59-8.893h31.78a12 12 0 0 1 11.587 8.878l74.375 276a12 12 0 0 1 0.413 3.122c0 6.627-5.373 12-12 12h-35.576a12 12 0 0 1-11.695-9.31l-45.79-199.105-49.76 199.321A12 12 0 0 1 528.097 424h-32.192a12 12 0 0 1-11.643-9.094l-49.66-198.927-46.096 198.732a12 12 0 0 1-11.69 9.289h-35.381a12 12 0 0 1-3.115-0.411c-6.4-1.72-10.194-8.303-8.474-14.703l74.173-276A12 12 0 0 1 415.606 124h31.99a12 12 0 0 1 11.59 8.893L512 329.905z"  horiz-adv-x="1024" />

    
    <glyph glyph-name="file-zip-fill" unicode="&#59486;" d="M854.6 607.3c6-6 9.4-14.1 9.4-22.6V-32c0-17.7-14.3-32-32-32H192c-17.7 0-32 14.3-32 32V800c0 17.7 14.3 32 32 32h424.7c8.5 0 16.7-3.4 22.7-9.4l215.2-215.3zM790.2 570L602 758.2V570h188.2zM296 760v-64h64v64h-64z m64-64v-64h64v64h-64z m-64-64v-64h64v64h-64z m64-64v-64h64v64h-64z m-64-64v-64h64v64h-64z m64-64v-64h64v64h-64z m-64-64v-64h64v64h-64z m0-64v-160h128V312H296z m48-48h32v-64h-32v64z"  horiz-adv-x="1024" />

    
    <glyph glyph-name="file-pdf-fill" unicode="&#59487;" d="M854.6 607.3c6-6 9.4-14.1 9.4-22.6V-32c0-17.7-14.3-32-32-32H192c-17.7 0-32 14.3-32 32V800c0 17.7 14.3 32 32 32h424.7c8.5 0 16.7-3.4 22.7-9.4l215.2-215.3zM790.2 570L602 758.2V570h188.2zM633.217 258.744c-15.174 0.489-31.314-0.67-49.65-2.964-24.298 14.987-40.654 35.582-52.274 65.827 0.28 1.152 0.86 3.538 1.063 4.38 0.474 1.958 0.867 3.594 1.243 5.185 4.293 18.13 6.615 31.358 7.3 44.695 0.518 10.074-0.04 19.368-1.827 27.976-3.298 18.584-16.454 29.453-33.021 30.126-15.446 0.627-29.649-7.993-33.281-21.373-5.913-21.612-2.45-50.07 10.08-98.582-15.964-38.056-37.052-82.661-51.203-107.539-18.885-9.74-33.604-18.605-45.953-28.427-16.303-12.966-26.48-26.29-29.286-40.306-1.355-6.48 0.692-14.966 5.36-21.912 5.296-7.879 13.282-12.991 22.855-13.735 24.152-1.877 53.83 23.024 86.59 79.258 3.295 1.09 6.78 2.257 11.026 3.69 2.323 0.783 10.464 3.538 11.91 4.026 7.521 2.54 12.98 4.36 18.376 6.116 23.396 7.612 41.096 12.429 57.21 15.163 27.973-14.973 60.316-24.796 82.098-24.796 17.979 0 30.126 9.319 34.515 23.985 3.857 12.886 0.794 27.824-7.473 36.084-8.56 8.41-24.3 12.434-45.658 13.123z m-247.985-128.42v0.36l0.126 0.338c1.275 3.421 3.157 7.008 5.6 10.758 4.284 6.576 10.173 13.5 17.472 20.865 3.92 3.955 8.002 7.8 12.79 12.12 1.073 0.969 7.91 7.059 9.189 8.25l11.176 10.407-8.12-12.934c-12.326-19.638-23.46-33.78-33.013-43.004-3.507-3.387-6.6-5.9-9.091-7.505-1.027-0.662-1.916-1.144-2.613-1.424-0.409-0.163-0.771-0.268-1.13-0.302a2.202 2.202 0 0 0-1.117 0.16 2.068 2.068 0 0 0-1.269 1.911z m125.934 218.269l-2.26-4.007-1.39 4.385c-3.114 9.829-5.387 24.641-6.016 37.997-0.716 15.197 0.49 24.323 5.286 24.323 6.74 0 9.831-10.808 10.076-27.053 0.216-14.28-2.03-29.142-5.696-35.645z m-5.81-58.464l1.534 4.05 2.088-3.795c11.69-21.245 26.858-38.967 43.538-51.315l3.595-2.662-4.38-0.904c-16.328-3.372-31.544-8.457-52.34-16.842 2.174 0.876-21.623-8.863-27.638-11.169l-5.252-2.013 2.802 4.877c12.35 21.496 23.758 47.326 36.052 79.773z m157.626-76.261c-7.864-3.104-24.777-0.329-54.569 12.387l-7.561 3.227 8.199 0.607c23.295 1.724 39.807 0.44 49.422-3.08 4.09-1.498 6.824-3.388 8.037-5.553 1.31-2.336 0.71-4.81-1.362-6.31-0.448-0.427-1.155-0.88-2.166-1.278z"  horiz-adv-x="1024" />

    
    <glyph glyph-name="file-image-fill" unicode="&#59488;" d="M854.6 607.3L639.4 822.6c-6 6-14.2 9.4-22.7 9.4H192c-17.7 0-32-14.3-32-32v-832c0-17.7 14.3-32 32-32h640c17.7 0 32 14.3 32 32V584.7c0 8.5-3.4 16.6-9.4 22.6zM400 494c22.1 0 40-17.9 40-40s-17.9-40-40-40-40 17.9-40 40 17.9 40 40 40z m296-294H328c-6.7 0-10.4 7.7-6.3 12.9l99.8 127.2c3.2 4.1 9.4 4.1 12.6 0l41.1-52.4 77.8 99.2c3.2 4.1 9.4 4.1 12.6 0l136.5-174c4.3-5.2 0.5-12.9-6.1-12.9z m-94 370V758.2L790.2 570H602z"  horiz-adv-x="1024" />

    
    <glyph glyph-name="diff-fill" unicode="&#59489;" d="M854.2 589.4L611.3 823.1c-6 5.7-13.9 8.9-22.2 8.9H296c-4.4 0-8-3.6-8-8v-56c0-4.4 3.6-8 8-8h277l219-210.6V72c0-4.4 3.6-8 8-8h56c4.4 0 8 3.6 8 8V566.4c0 8.7-3.5 17-9.8 23zM553.4 694.6c-6 6-14.1 9.4-22.6 9.4H192c-17.7 0-32-14.3-32-32v-704c0-17.7 14.3-32 32-32h512c17.7 0 32 14.3 32 32V498.7c0 8.5-3.4 16.6-9.4 22.6L553.4 694.6zM568 143c0-3.8-3.4-7-7.5-7h-225c-4.1 0-7.5 3.2-7.5 7v42c0 3.8 3.4 7 7.5 7h225c4.1 0 7.5-3.2 7.5-7v-42z m0 220c0-3.8-3.4-7-7.5-7H476v-84.9c0-3.9-3.1-7.1-7-7.1h-42c-3.8 0-7 3.2-7 7.1V356h-84.5c-4.1 0-7.5 3.2-7.5 7v42c0 3.9 3.4 7 7.5 7H420v84.9c0 3.9 3.2 7.1 7 7.1h42c3.9 0 7-3.2 7-7.1V412h84.5c4.1 0 7.5-3.1 7.5-7v-42z"  horiz-adv-x="1024" />

    
    <glyph glyph-name="file-copy-fill" unicode="&#59490;" d="M832 832H296c-4.4 0-8-3.6-8-8v-56c0-4.4 3.6-8 8-8h496v-688c0-4.4 3.6-8 8-8h56c4.4 0 8 3.6 8 8V800c0 17.7-14.3 32-32 32zM704 704H192c-17.7 0-32-14.3-32-32v-530.7c0-8.5 3.4-16.6 9.4-22.6l173.3-173.3c2.2-2.2 4.7-4 7.4-5.5v-1.9h4.2c3.5-1.3 7.2-2 11-2H704c17.7 0 32 14.3 32 32V672c0 17.7-14.3 32-32 32zM382 0h-0.2L232 149.8v0.2h150v-150z"  horiz-adv-x="1024" />

    
    <glyph glyph-name="folder-add-fill" unicode="&#59491;" d="M880 597.6H521L403.7 709.8c-1.5 1.4-3.5 2.2-5.5 2.2H144c-17.7 0-32-14.3-32-32v-592c0-17.7 14.3-32 32-32h736c17.7 0 32 14.3 32 32V565.6c0 17.7-14.3 32-32 32zM632 319c0-3.8-3.4-7-7.5-7H540v-84.9c0-3.9-3.2-7.1-7-7.1h-42c-3.8 0-7 3.2-7 7.1V312h-84.5c-4.1 0-7.5 3.2-7.5 7v42c0 3.8 3.4 7 7.5 7H484v84.9c0 3.9 3.2 7.1 7 7.1h42c3.8 0 7-3.2 7-7.1V368h84.5c4.1 0 7.5-3.2 7.5-7v-42z"  horiz-adv-x="1024" />

    
    <glyph glyph-name="folder-fill" unicode="&#59492;" d="M880 597.6H521L403.7 709.8c-1.5 1.4-3.5 2.2-5.5 2.2H144c-17.7 0-32-14.3-32-32v-592c0-17.7 14.3-32 32-32h736c17.7 0 32 14.3 32 32V565.6c0 17.7-14.3 32-32 32z"  horiz-adv-x="1024" />

    
    <glyph glyph-name="folder-open-fill" unicode="&#59493;" d="M928 452H820V565.6c0 17.7-14.3 32-32 32H473L355.7 709.8c-1.5 1.4-3.5 2.2-5.5 2.2H96c-17.7 0-32-14.3-32-32v-592c0-17.7 14.3-32 32-32h698c13 0 24.8 7.9 29.7 20l134 332c1.5 3.8 2.3 7.9 2.3 12 0 17.7-14.3 32-32 32z m-180 0H238c-13 0-24.8-7.9-29.7-20L136 252.8V640h188.5l119.6-114.4H748V452z"  horiz-adv-x="1024" />

    
    <glyph glyph-name="audiostatic" unicode="&#59624;" d="M682 441V585l-76-76v-68c-0.1-50.7-42-92.1-94-92-19.1-0.1-36.8 5.4-52 15l-54-55c29.1-22.4 65.9-36 106-36 93.8 0 170 75.1 170 168zM833 450h-60c-4.4 0-8-3.6-8-8 0-140.3-113.7-254-254-254-63 0-120.7 23-165 61l-54-54c48.9-43.2 110.8-72.3 179-81v-102H326c-13.9 0-24.9-14.3-25-32v-36c0.1-4.4 2.9-8 6-8h408c3.2 0 6 3.6 6 8v36c0 17.7-11 32-25 32H547V114c165.3 17.9 294 157.9 294 328 0 4.4-3.6 8-8 8zM846.1 827.7l-43.5 41.9c-3.1 3-8.1 3-11.2-0.1l-129-129C634.3 794.8 577 832 511 832c-93.9 0-170-75.3-170-168v-224c0-6.7 0.4-13.3 1.2-19.8l-68-68c-10.5 27.9-16.3 58.2-16.2 89.8-0.2 4.4-3.8 8-8 8h-60c-4.4 0-8-3.6-8-8 0-53 12.5-103 34.6-147.4l-137-137c-3.1-3.1-3.1-8.2 0-11.3l42.7-42.7c3.1-3.1 8.2-3.1 11.3 0L846.2 816.2l0.1 0.1c3.1 3.2 3 8.3-0.2 11.4zM417 495V664c0 50.6 41.9 92 94 92 46 0 84.1-32.3 92.3-74.7L417 495z"  horiz-adv-x="1024" />

    
    <glyph glyph-name="caret-down" unicode="&#59628;" d="M840.4 596H183.6c-19.7 0-30.7-20.8-18.5-35l328.4-380.8c9.4-10.9 27.5-10.9 37 0L858.9 561c12.2 14.2 1.2 35-18.5 35z"  horiz-adv-x="1024" />

    
    <glyph glyph-name="backward" unicode="&#59629;" d="M485.6 646.1L198.2 398c-8.3-7.1-8.3-20.8 0-27.9l287.4-248.2c10.7-9.2 26.4-0.9 26.4 14V632.2c0 14.8-15.7 23.2-26.4 13.9z m320 0L518.2 398c-4.1-3.6-6.2-8.8-6.2-14 0-5.2 2.1-10.4 6.2-14l287.4-248.2c10.7-9.2 26.4-0.9 26.4 14V632.2c0 14.8-15.7 23.2-26.4 13.9z"  horiz-adv-x="1024" />

    
    <glyph glyph-name="caret-up" unicode="&#59630;" d="M858.9 207L530.5 587.8c-9.4 10.9-27.5 10.9-37 0L165.1 207c-12.2-14.2-1.2-35 18.5-35h656.8c19.7 0 30.7 20.8 18.5 35z"  horiz-adv-x="1024" />

    
    <glyph glyph-name="caret-right" unicode="&#59631;" d="M715.8 402.5L335 730.9c-14.2 12.2-35 1.2-35-18.5v-656.8c0-19.7 20.8-30.7 35-18.5l380.8 328.4c10.9 9.4 10.9 27.6 0 37z"  horiz-adv-x="1024" />

    
    <glyph glyph-name="caret-left" unicode="&#59632;" d="M689 730.9L308.2 402.5c-10.9-9.4-10.9-27.5 0-37L689 37.1c14.2-12.2 35-1.2 35 18.5V712.4c0 19.7-20.8 30.7-35 18.5z"  horiz-adv-x="1024" />

    
    <glyph glyph-name="fast-backward" unicode="&#59633;" d="M517.6 622.5L230.2 396.7c-4.1-3.2-6.2-8-6.2-12.7 0-4.7 2.1-9.5 6.2-12.7l287.4-225.8c10.7-8.4 26.4-0.8 26.4 12.7V609.8c0 13.5-15.7 21.1-26.4 12.7z m320 0L550.2 396.7c-4.1-3.2-6.2-8-6.2-12.7 0-4.7 2.1-9.5 6.2-12.7l287.4-225.8c10.7-8.4 26.4-0.8 26.4 12.7V609.8c0 13.5-15.7 21.1-26.4 12.7z m-620 25.5h-51.2c-3.5 0-6.4-2.7-6.4-6v-516c0-3.3 2.9-6 6.4-6h51.2c3.5 0 6.4 2.7 6.4 6V642c0 3.3-2.9 6-6.4 6z"  horiz-adv-x="1024" />

    
    <glyph glyph-name="forward" unicode="&#59634;" d="M825.8 398L538.4 646.1c-10.7 9.2-26.4 0.9-26.4-14v-496.3c0-14.9 15.7-23.2 26.4-14L825.8 370c8.3 7.2 8.3 20.8 0 28z m-320 0L218.4 646.1c-10.7 9.2-26.4 0.9-26.4-14v-496.3c0-14.9 15.7-23.2 26.4-14L505.8 370c4.1 3.6 6.2 8.8 6.2 14 0 5.2-2.1 10.4-6.2 14z"  horiz-adv-x="1024" />

    
    <glyph glyph-name="fast-forward" unicode="&#59635;" d="M793.8 396.7L506.4 622.5c-10.7 8.4-26.4 0.8-26.4-12.7v-451.6c0-13.5 15.7-21.1 26.4-12.7l287.4 225.8c4.1 3.2 6.2 8 6.2 12.7 0 4.7-2.1 9.5-6.2 12.7z m-320 0L186.4 622.5c-10.7 8.4-26.4 0.8-26.4-12.7v-451.5c0-13.5 15.7-21.1 26.4-12.7l287.4 225.8c4.1 3.2 6.2 8 6.2 12.7 0 4.6-2.1 9.4-6.2 12.6zM857.6 648h-51.2c-3.5 0-6.4-2.7-6.4-6v-516c0-3.3 2.9-6 6.4-6h51.2c3.5 0 6.4 2.7 6.4 6V642c0 3.3-2.9 6-6.4 6z"  horiz-adv-x="1024" />

    
    <glyph glyph-name="search1" unicode="&#59636;" d="M909.6 41.5L649.9 301.2C690.2 353.3 712 417 712 484c0 80.2-31.3 155.4-87.9 212.1-56.6 56.7-132 87.9-212.1 87.9s-155.5-31.3-212.1-87.9C143.2 639.5 112 564.2 112 484c0-80.1 31.3-155.5 87.9-212.1C256.5 215.2 331.8 184 412 184c67 0 130.6 21.8 182.7 62l259.7-259.6c3.2-3.2 8.4-3.2 11.6 0l43.6 43.5c3.2 3.2 3.2 8.4 0 11.6zM570.4 325.6C528 283.3 471.8 260 412 260s-116 23.3-158.4 65.6C211.3 368 188 424.2 188 484s23.3 116.1 65.6 158.4C296 684.7 352.2 708 412 708s116.1-23.2 158.4-65.6S636 543.8 636 484s-23.3-116.1-65.6-158.4z"  horiz-adv-x="1024" />

    
    <glyph glyph-name="aim" unicode="&#59667;" d="M952 422H829.8C812.5 568.4 696.4 684.5 550 701.8V824c0 4.4-3.6 8-8 8h-60c-4.4 0-8-3.6-8-8v-122.2C327.6 684.5 211.5 568.4 194.2 422H72c-4.4 0-8-3.6-8-8v-60c0-4.4 3.6-8 8-8h122.2C211.5 199.6 327.6 83.5 474 66.2V-56c0-4.4 3.6-8 8-8h60c4.4 0 8 3.6 8 8V66.2C696.4 83.5 812.5 199.6 829.8 346H952c4.4 0 8 3.6 8 8v60c0 4.4-3.6 8-8 8zM512 140c-134.8 0-244 109.2-244 244s109.2 244 244 244 244-109.2 244-244-109.2-244-244-244zM512 504c-32.1 0-62.1-12.4-84.8-35.2-22.7-22.7-35.2-52.7-35.2-84.8s12.5-62.1 35.2-84.8C449.9 276.6 480 264 512 264s62.1 12.5 84.8 35.2C619.4 321.9 632 352 632 384s-12.5 62.1-35.2 84.8C574.1 491.6 544.1 504 512 504z"  horiz-adv-x="1024" />

    
    <glyph glyph-name="compress" unicode="&#59668;" d="M326 232H104c-8.8 0-16-7.2-16-16v-48c0-8.8 7.2-16 16-16h174v-176c0-8.8 7.2-16 16-16h48c8.8 0 16 7.2 16 16V200c0 17.7-14.3 32-32 32zM342 808h-48c-8.8 0-16-7.2-16-16v-176H104c-8.8 0-16-7.2-16-16v-48c0-8.8 7.2-16 16-16h222c17.7 0 32 14.3 32 32V792c0 8.8-7.2 16-16 16zM920 232H698c-17.7 0-32-14.3-32-32v-224c0-8.8 7.2-16 16-16h48c8.8 0 16 7.2 16 16V152h174c8.8 0 16 7.2 16 16v48c0 8.8-7.2 16-16 16zM920 616H746V792c0 8.8-7.2 16-16 16h-48c-8.8 0-16-7.2-16-16v-224c0-17.7 14.3-32 32-32h222c8.8 0 16 7.2 16 16v48c0 8.8-7.2 16-16 16z"  horiz-adv-x="1024" />

    
    <glyph glyph-name="expend" unicode="&#59669;" d="M342 808H120c-17.7 0-32-14.3-32-32v-224c0-8.8 7.2-16 16-16h48c8.8 0 16 7.2 16 16V728h174c8.8 0 16 7.2 16 16v48c0 8.8-7.2 16-16 16zM920 232h-48c-8.8 0-16-7.2-16-16v-176H682c-8.8 0-16-7.2-16-16v-48c0-8.8 7.2-16 16-16h222c17.7 0 32 14.3 32 32V216c0 8.8-7.2 16-16 16zM342 40H168V216c0 8.8-7.2 16-16 16h-48c-8.8 0-16-7.2-16-16v-224c0-17.7 14.3-32 32-32h222c8.8 0 16 7.2 16 16v48c0 8.8-7.2 16-16 16zM904 808H682c-8.8 0-16-7.2-16-16v-48c0-8.8 7.2-16 16-16h174v-176c0-8.8 7.2-16 16-16h48c8.8 0 16 7.2 16 16V776c0 17.7-14.3 32-32 32z"  horiz-adv-x="1024" />

    
    <glyph glyph-name="f-set" unicode="&#59239;" d="M942.788 472.734a36.998 36.998 0 0 1-11.026 26.084 36.955 36.955 0 0 1-26.24 10.647l-76.422-0.553a348.692 348.692 0 0 1-18.651 36.551l-0.001 0.001a349.1 349.1 0 0 1-22.824 34.101l37.732 66.46a36.998 36.998 0 0 1-13.908 50.444l-172.795 98.102a36.998 36.998 0 0 1-50.444-13.908l-37.729-66.456a342.769 342.769 0 0 1-81.969-0.525l-38.648 65.837c-10.344 17.622-33.016 23.522-50.64 13.177L207.864 692.103c-17.622-10.345-23.521-33.017-13.177-50.64l38.648-65.836a342.852 342.852 0 0 1-40.412-71.316l-76.417-0.552a37 37 0 0 1-36.731-37.267l1.437-198.696a36.998 36.998 0 0 1 36.998-36.732l0.269 0.001 76.422 0.554a348.66 348.66 0 0 1 18.652-36.554 348.988 348.988 0 0 1 22.825-34.101l-37.733-66.459a36.998 36.998 0 0 1 13.908-50.444l172.795-98.103a36.816 36.816 0 0 1 18.233-4.83c12.88 0.001 25.396 6.737 32.21 18.738l37.73 66.455a342.915 342.915 0 0 1 81.968 0.526l38.648-65.836c10.345-17.622 33.016-23.522 50.64-13.177l171.358 100.594c17.622 10.345 23.521 33.017 13.177 50.639l-38.647 65.837a342.886 342.886 0 0 1 40.411 71.315l76.417 0.553c20.435 0.148 36.879 16.833 36.731 37.267l-1.436 198.695zM569.213 272.785c-17.582-10.321-37.171-15.603-57.033-15.603-9.554 0-19.167 1.221-28.656 3.69-29.22 7.603-53.731 26.13-69.015 52.168-15.285 26.038-19.516 56.47-11.911 85.689 7.603 29.219 26.13 53.728 52.168 69.013 26.039 15.285 56.47 19.516 85.688 11.913 29.219-7.603 53.729-26.129 69.014-52.167v-0.001c31.554-53.749 13.495-123.148-40.255-154.702z"  horiz-adv-x="1024" />

    
    <glyph glyph-name="f-sort" unicode="&#59240;" d="M429.849 339.083H138.048c-20.435 0-37-16.565-37-37v-291.801c0-20.435 16.565-37 37-37h291.801c20.435 0 37 16.565 37 37V302.083c0 20.435-16.566 37-37 37zM429.849 794.717H138.048c-20.435 0-37-16.565-37-37v-291.801c0-20.435 16.565-37 37-37h291.801c20.435 0 37 16.565 37 37V757.717c0 20.435-16.566 37-37 37zM885.952 339.083H594.151c-20.435 0-37-16.565-37-37v-291.801c0-20.435 16.565-37 37-37h291.801c20.435 0 37 16.565 37 37V302.083c0 20.435-16.565 37-37 37zM594.522151 466.286544a192.387 192.387 0 1 1 272.071556 272.081054 192.387 192.387 0 1 1-272.071556-272.081054Z"  horiz-adv-x="1024" />

    
    <glyph glyph-name="f-star" unicode="&#59241;" d="M955.108 487.017a36.999 36.999 0 0 1-29.869 25.182l-262.615 38.16-117.445 237.97a37 37 0 0 1-66.358 0l-117.445-237.97-262.615-38.16a37 37 0 1 1-20.507-63.111l190.03-185.234-44.86-261.554a36.999 36.999 0 0 1 53.685-39.004L512 86.785l234.89-123.489a36.963 36.963 0 0 1 17.214-4.25 36.999 36.999 0 0 1 36.471 43.254l-44.86 261.554 190.03 185.234a37 37 0 0 1 9.363 37.929z"  horiz-adv-x="1024" />

    
    <glyph glyph-name="f-code" unicode="&#59250;" d="M128 406.591h361.409V768H128v-361.409z m90.351 271.058h180.707v-180.706H218.351V677.649zM534.589 768v-361.409H896V768H534.589z m271.055-271.058H624.941V677.649h180.703v-180.707z m-542.113 45.175h90.351v90.356h-90.351v-90.356zM128 0h361.409V361.415H128V0z m90.351 271.059h180.707v-180.703H218.351V271.059z m542.118 361.414h-90.351v-90.356h90.351v90.356zM534.589 0h90.351v90.356h-90.351V0z m90.352 271.059v-180.703h90.352V271.059h-90.352z m180.703-180.703h-90.351V0H896V180.708h-90.356v-90.352z m0 180.703H896v90.356h-90.356v-90.356z m-271.055 90.356v-90.356h90.351v90.356h-90.351zM263.531 135.533h90.351v90.35h-90.351v-90.35z m0 0"  horiz-adv-x="1024" />

    
    <glyph glyph-name="chart-line" unicode="&#59494;" d="M939.804 65.422h-782.79V775.396c0 5.006-4.097 9.102-9.103 9.102H84.196c-5.007 0-9.103-4.096-9.103-9.102v-782.792c0-5.006 4.096-9.102 9.103-9.102h855.608c5.007 0 9.103 4.096 9.103 9.102V56.32c0 5.006-4.096 9.102-9.103 9.102zM277.39 240.981c3.527-3.527 9.216-3.527 12.857 0L447.602 397.54l145.18-146.091c3.527-3.527 9.33-3.527 12.857 0l313.344 313.23c3.527 3.527 3.527 9.33 0 12.857l-45.056 45.056c-3.527 3.527-9.33 3.527-12.857 0L599.381 361.017 454.428 506.88c-3.527 3.527-9.33 3.527-12.856 0L232.448 299.008c-3.527-3.527-3.527-9.33 0-12.857l44.942-45.17z"  horiz-adv-x="1024" />

    
    <glyph glyph-name="num1" unicode="&#59520;" d="M583.052 637.474c-63.898-58.096-140.851-104.55-230.878-139.4V589.55c133.58 60.996 219.255 137.95 257.023 230.895h65.331V-63.88h-91.477V637.474z"  horiz-adv-x="1024" />

    
    <glyph glyph-name="num0" unicode="&#59521;" d="M517.186-52.954c-194.593 2.901-291.874 151.006-291.874 444.347 2.9 293.308 98.731 444.331 287.522 453.052 188.756-5.82 284.603-156.843 287.504-453.052-2.9-290.44-97.296-438.544-283.152-444.347z m-8.72 818.979c-119.075-8.721-180.054-133.598-182.955-374.63 0-249.771 62.43-373.197 187.324-370.296 124.859-2.901 187.306 120.525 187.306 370.296 0 252.654-63.898 377.53-191.675 374.63z"  horiz-adv-x="1024" />

    
    <glyph glyph-name="num2" unicode="&#59522;" d="M212.24-55.176v56.644c55.177 116.156 146.654 220.705 274.45 313.65 130.678 95.83 194.576 182.955 191.674 261.377-2.9 104.55-62.447 158.276-178.602 161.177-90.044-5.82-151.023-62.447-182.972-169.899l-87.125 43.572c49.373 142.302 145.22 212.002 287.521 209.101 162.628-5.82 249.754-82.79 261.375-230.895 8.705-113.255-63.897-222.158-217.822-326.707-119.073-87.142-197.477-168.448-235.229-243.951h457.403v-74.07H212.24z"  horiz-adv-x="1024" />

    
    <glyph glyph-name="num7" unicode="&#59523;" d="M457.613-42.547h-104.55c43.554 264.277 152.473 524.203 326.723 779.776h-448.7V824.354H797.41v-60.996C608.635 501.982 495.364 233.353 457.613-42.547z"  horiz-adv-x="1024" />

    
    <glyph glyph-name="num4" unicode="&#59524;" d="M821.672 149.573H699.697V-63.88H612.57V149.573H211.795v52.274L629.997 820.446h69.7v-592.452h121.975v-78.421z m-505.326 78.421h296.226V676.676c0-2.9-2.9-8.72-8.704-17.425-2.919-8.704-5.82-15.974-8.72-21.777-46.474-60.997-139.401-197.479-278.802-409.48z"  horiz-adv-x="1024" />

    
    <glyph glyph-name="num3" unicode="&#59525;" d="M797.41 197.051c-8.721-159.744-104.567-243.95-287.522-252.671-162.645 0-261.376 76.953-296.226 230.877l100.198 26.147c17.425-119.075 79.872-178.603 187.324-178.603 130.678 0 196.026 60.98 196.026 182.955-8.72 104.55-75.52 159.726-200.38 165.546h-78.42v78.404h43.571c124.86 2.9 190.207 58.078 196.027 165.546-5.82 92.928-55.193 140.851-148.121 143.752-98.748-2.901-158.276-58.095-178.603-165.546l-95.83 30.498C270.307 766.26 360.334 838.861 505.537 841.78c165.529-5.82 251.204-81.322 257.024-226.526-2.901-95.846-52.275-161.195-148.121-196.044 116.155-34.85 177.151-108.903 182.97-222.158z"  horiz-adv-x="1024" />

    
    <glyph glyph-name="num5" unicode="&#59526;" d="M531.682 536.832c168.43-8.721 258.458-104.55 270.08-287.505-5.803-197.495-100.199-299.144-283.153-304.947-165.547 0-264.278 78.404-296.226 235.247l95.828 26.129c17.425-121.976 81.323-184.423 191.676-187.324 124.876 5.802 190.225 79.872 196.044 222.174-5.82 133.597-69.717 203.298-191.675 209.1-90.044-2.9-153.925-34.849-191.675-95.828l-65.349 13.056 52.276 457.42h448.7v-87.125H383.56l-26.13-265.745c52.26 43.554 110.354 65.348 174.252 65.348z"  horiz-adv-x="1024" />

    
    <glyph glyph-name="num6" unicode="&#59527;" d="M784.336 645.735l-87.125-30.48c-23.245 101.631-78.422 151.005-165.529 148.104-145.22-2.901-217.822-123.426-217.822-361.574 46.455 78.404 121.976 119.075 226.525 121.976 162.629-8.705 249.753-103.1 261.376-283.153-11.623-182.972-103.1-281.702-274.448-296.226-206.2 0-309.282 140.851-309.282 422.553C220.932 683.487 326.933 841.78 536.034 841.78c127.777-5.82 210.551-71.168 248.302-196.045zM318.213 288.529c2.9-177.153 72.602-268.647 209.101-274.45 110.353 5.802 168.447 78.422 174.25 217.822-2.9 139.4-60.996 210.552-174.25 213.453-113.255-5.82-182.956-58.094-209.101-156.825z"  horiz-adv-x="1024" />

    
    <glyph glyph-name="num8" unicode="&#59528;" d="M396.633 410.504c-87.142 40.654-133.597 105.984-139.4 196.028C268.837 754.637 355.962 833.06 518.608 841.78c156.808-11.622 242.483-90.044 257.023-235.247-5.82-92.945-49.391-158.275-130.696-196.028 107.452-40.669 164.08-119.09 169.899-235.247-8.721-148.12-107.47-225.074-296.226-230.877-191.693 5.802-290.424 85.657-296.226 239.598 8.704 113.255 66.798 188.775 174.25 226.526z m117.624-34.85c-116.172-5.82-180.07-69.717-191.675-191.675 11.605-104.55 76.953-161.194 196.028-169.899 119.057 8.705 184.405 62.43 196.027 161.177-8.722 127.78-75.52 194.578-200.38 200.398z m4.352 387.704c-95.847-5.802-148.122-55.177-156.826-148.105 2.901-107.47 55.177-164.096 156.826-169.899 95.828 2.901 146.653 56.628 152.472 161.177-8.72 95.83-59.545 148.106-152.472 156.827z"  horiz-adv-x="1024" />

    
    <glyph glyph-name="num9" unicode="&#59529;" d="M242.738 128.859l91.477 30.498c20.326-101.648 74.053-151.023 161.195-148.121 136.482 5.802 206.182 126.327 209.1 361.574-43.572-84.224-116.172-126.327-217.82-126.327-162.646 14.506-251.222 110.353-265.729 287.505C232.567 722.745 326.963 824.395 504.114 838.936c203.298 2.901 303.479-140.869 300.578-431.275 0-307.849-106.001-463.224-318.003-466.125-127.796 5.802-209.101 68.232-243.951 187.323zM704.51 486.064c0 182.955-69.7 272.999-209.1 270.097-110.37-8.721-169.915-79.872-178.62-213.453 5.803-133.598 65.349-204.766 178.62-213.47 113.254 0 182.953 52.276 209.1 156.826z"  horiz-adv-x="1024" />

    
    <glyph glyph-name="radio-checked-fill" unicode="&#59532;" d="M512 802.14C281.45 802.14 93.86 614.552 93.86 384c0-230.58 187.56-418.14 418.14-418.14S930.14 153.42 930.14 384c0 230.55-187.56 418.14-418.14 418.14zM512 234c-82.71 0-150 67.289-150 150s67.289 150 150 150 150-67.29 150-150-67.29-150-150-150z"  horiz-adv-x="1024" />

    
    <glyph glyph-name="radio-checked" unicode="&#59533;" d="M512 802.14C281.45 802.14 93.86 614.552 93.86 384c0-230.58 187.56-418.14 418.14-418.14S930.14 153.42 930.14 384c0 230.55-187.56 418.14-418.14 418.14z m0-776.28c-197.49 0-358.14 160.68-358.14 358.14 0 197.49 160.649 358.14 358.14 358.14 197.46 0 358.14-160.649 358.14-358.14 0-197.46-160.68-358.14-358.14-358.14zM512 534c-82.71 0-150-67.29-150-150s67.289-150 150-150 150 67.289 150 150-67.29 150-150 150z"  horiz-adv-x="1024" />

    
    <glyph glyph-name="ring" unicode="&#59535;" d="M798.037 452.494c0 222.094-119.466 297.643-231.196 314.482 0 1.138 0.227 2.276 0.227 3.64 0 27.99-24.803 50.29-55.068 50.29-30.265 0-54.158-22.3-54.158-50.29 0-1.364 0-2.502 0.227-3.64-111.957-17.067-232.106-92.843-232.106-314.937 0-258.958-64.399-286.72-150.87-359.538h873.814c-86.016 73.046-150.87 101.035-150.87 359.993z m-624.64-323.356c19.57 20.48 37.32 41.87 51.655 72.362 27.307 57.572 39.595 134.713 39.595 250.767 0 105.585 28.445 182.954 84.423 230.286 52.11 43.918 117.646 53.02 163.385 53.02 45.739 0 111.275-9.102 162.93-53.02 55.751-47.104 84.195-124.018 84.195-229.604 0-190.691 33.906-266.922 91.705-323.811H173.397zM512.455-52.907c60.985 0 111.047 45.284 117.646 97.85H394.81c6.371-52.566 56.661-97.85 117.646-97.85z"  horiz-adv-x="1024" />

    
    <glyph glyph-name="ring-fill" unicode="&#59536;" d="M798.037 452.494c0 222.094-119.466 297.643-231.196 314.482 0 1.138 0.227 2.276 0.227 3.64 0 27.99-24.803 50.29-55.068 50.29-30.265 0-54.158-22.3-54.158-50.29 0-1.364 0-2.502 0.227-3.64-111.957-17.067-232.106-92.843-232.106-314.937 0-258.958-64.399-286.72-150.87-359.538h873.814c-86.016 73.046-150.87 101.035-150.87 359.993zM512.455-52.907c60.985 0 111.047 45.284 117.646 97.85H394.81c6.371-52.566 56.661-97.85 117.646-97.85z"  horiz-adv-x="1024" />

    
    <glyph glyph-name="radio-unchecked" unicode="&#59537;" d="M512-16c-220.91 0-400 179.09-400 400s179.09 400 400 400 400-179.09 400-400-179.09-400-400-400z m0 60c187.78 0 340 152.22 340 340S699.78 724 512 724 172 571.78 172 384s152.22-340 340-340z"  horiz-adv-x="1024" />

    
    <glyph glyph-name="shutdown-fill" unicode="&#59540;" d="M512-66C263.472-66 62 135.472 62 384S263.472 834 512 834s450-201.472 450-450-201.472-450-450-450z m31.658 753.015h-61.055V420.18h61.055V687.015z m62.457-60.598l-19.202-60.483c71.486-29.47 121.82-99.808 121.82-181.934 0-108.653-88.08-196.733-196.733-196.733S315.267 275.347 315.267 384c0 82.122 50.334 152.46 121.82 181.934l-19.202 60.487C320.801 588.697 251.95 494.418 251.95 384c0-143.622 116.428-260.05 260.05-260.05S772.05 240.378 772.05 384c0 110.418-68.851 204.697-165.935 242.417z"  horiz-adv-x="1024" />

    
    <glyph glyph-name="shutdown" unicode="&#59541;" d="M512-66C263.472-66 62 135.472 62 384S263.472 834 512 834s450-201.472 450-450-201.472-450-450-450z m0 881.91C273.465 815.91 80.09 622.534 80.09 384S273.466-47.912 512-47.912 943.912 145.465 943.912 384 750.535 815.91 512 815.91z m0-691.963C368.378 123.95 251.95 240.377 251.95 384c0 110.418 68.851 204.697 165.938 242.417l19.2-60.483C365.6 536.464 315.266 466.126 315.266 384c0-108.653 88.08-196.733 196.733-196.733S708.733 275.347 708.733 384c0 82.122-50.334 152.46-121.82 181.934l19.202 60.487C703.199 588.697 772.05 494.418 772.05 384c0-143.622-116.428-260.05-260.05-260.05z m-29.397 563.068h61.055V420.18h-61.055V687.015z"  horiz-adv-x="1024" />

    
    <glyph glyph-name="add" unicode="&#58881;" d="M892.8 447.8h-316.5v316.6c0 35.2-28.8 63.9-63.9 63.9-35.2 0-63.9-28.8-63.9-63.9v-316.6h-316.7c-35.2 0-63.9-28.8-63.9-63.9 0-35.2 28.8-63.9 63.9-63.9h316.6v-316.6c0-35.2 28.8-63.9 63.9-63.9 35.2 0 63.9 28.8 63.9 63.9v316.6h316.6c35.2 0 63.9 28.8 63.9 63.9 0.1 35.1-28.7 63.9-63.9 63.9z"  horiz-adv-x="1024" />

    
    <glyph glyph-name="remove" unicode="&#58882;" d="M602.7 384.1l271.7 271.7c24.9 24.9 24.9 65.5 0 90.4-24.9 24.9-65.5 24.9-90.4 0l-271.7-271.7-271.7 271.7c-24.9 24.9-65.5 24.9-90.4 0-24.9-24.9-24.9-65.5 0-90.4l271.7-271.7-271.7-271.7c-24.9-24.9-24.9-65.5 0-90.4s65.5-24.9 90.4 0l271.7 271.7 271.8-271.7c24.9-24.9 65.5-24.9 90.4 0s24.9 65.5 0 90.4l-271.8 271.7z"  horiz-adv-x="1024" />

    
    <glyph glyph-name="pencil" unicode="&#58884;" d="M919.9 633.5l-160.4 160.5c-43.2 43.2-108.4 48.2-145.5 11l-528.9-528.8-18.3-261c-2.8-39.6 34-76.6 73.7-74.2l259.6 16.1 530.8 530.9c37.2 37.1 32.3 102.3-11 145.5zM161.7 71.8l12.8 137.1 0.2 0.2c33.8-14.3 66.2-35.7 94.5-64.1 29-29 50.7-62.2 65-96.8l-138.9-10.6c-18.1-1.3-35.3 16.2-33.6 34.2zM833.8 547.2l-428.8-428.8c-14.3 33.6-35.6 65.7-63.8 93.8-29.3 29.3-62.9 51.2-98 65.5l430 430c4.6 4.6 12.9 3.9 18.4-1.7l140.5-140.5c5.6-5.4 6.3-13.7 1.7-18.3zM712.4 548.8c-20.5 20.5-53.6 20.5-74.1 0l-109.2-109.3c-20.5-20.5-20.5-53.6 0-74.1s53.6-20.5 74.1 0l109.3 109.3c20.4 20.5 20.4 53.6-0.1 74.1z"  horiz-adv-x="1024" />

    
    <glyph glyph-name="user" unicode="&#58885;" d="M297.4 614.7c0-119.017 96.483-215.5 215.5-215.5s215.5 96.483 215.5 215.5c0 119.017-96.483 215.5-215.5 215.5-119.017 0-215.5-96.483-215.5-215.5zM878.8 174.7c-8.1 132.6-79.2 237.2-169.2 236.1-5.9 0-10.9-1.9-15.1-4.2-86.4-48.8-259.6-56.5-365.7 0-5.2 2.8-10.4 4.2-15.2 4.2-82.4-0.2-157.2-106.7-169.2-236.1-10.2-131.5-0.5-236.7 169.2-236.1h396c153.1-2 183.7 101.1 169.2 236.1z"  horiz-adv-x="1024" />

    
    <glyph glyph-name="user-circle" unicode="&#58887;" d="M922 557c-22.4 53-54.5 100.6-95.3 141.4-40.9 40.9-88.4 72.9-141.4 95.3-54.9 23.2-113.2 35-173.2 35s-118.3-11.8-173.2-35c-53-22.4-100.6-54.5-141.4-95.3-41-40.8-73.1-88.4-95.5-141.4-23.2-54.9-35-113.2-35-173.2 0-60.1 11.8-118.3 35-173.2 22.4-53 54.5-100.6 95.3-141.4 40.9-40.9 88.4-72.9 141.4-95.3 54.9-23.2 113.2-35 173.2-35s118.3 11.8 173.2 35c53 22.4 100.6 54.5 141.4 95.3 40.9 40.9 72.9 88.4 95.3 141.4 23.2 54.9 35 113.2 35 173.2 0.2 60-11.6 118.3-34.8 173.2zM798.6 191.9c-27.3 34-62.2 54.2-100.8 53.8-5.5 0-10.2-1.8-14.2-3.9-81.2-45.9-244.1-53.1-343.8 0-4.9 2.6-9.8 3.9-14.3 3.9-35.9-0.1-70.3-21.6-97.9-56.8-38.2 55.5-60.5 122.7-60.5 195 0 190.2 154.8 345 345 345s345-154.8 345-345c-0.1-71.1-21.6-137.1-58.5-192zM310.2 437.3c0-111.893 90.707-202.6 202.6-202.6s202.6 90.707 202.6 202.6c0 0 0 0 0 0-0 111.893-90.707 202.6-202.6 202.6-111.893 0-202.6-90.707-202.6-202.6z"  horiz-adv-x="1024" />

    
    <glyph glyph-name="chevron-left" unicode="&#58891;" d="M657.8 810.8l-379.3-379.3c-0.9-0.8-1.8-1.7-2.7-2.5-25-25-25-65.4 0-90.4l381.3-381.3c25-25 65.4-25 90.4 0s25 65.4 0 90.4l-336 336 336.7 336.7c25 25 25 65.4 0 90.4-25 24.9-65.4 24.9-90.4 0z"  horiz-adv-x="1024" />

    
    <glyph glyph-name="chevron-right" unicode="&#58892;" d="M366.2-42.8l379.3 379.3c0.9 0.8 1.8 1.7 2.7 2.5 25 25 25 65.4 0 90.4l-381.3 381.4c-25 25-65.4 25-90.4 0s-25-65.4 0-90.4l336-336-336.7-336.8c-25-25-25-65.4 0-90.4 25-24.9 65.4-24.9 90.4 0z"  horiz-adv-x="1024" />

    
    <glyph glyph-name="chevron-up" unicode="&#58893;" d="M938.8 238.2l-379.3 379.3c-0.8 0.9-1.7 1.8-2.5 2.7-25 25-65.4 25-90.4 0l-381.4-381.3c-25-25-25-65.4 0-90.4s65.4-25 90.4 0l336 336 336.7-336.7c25-25 65.4-25 90.4 0s25 65.4 0.1 90.4z"  horiz-adv-x="1024" />

    
    <glyph glyph-name="chevron-down" unicode="&#58894;" d="M85.2 529.8l379.3-379.3c0.8-0.9 1.7-1.8 2.5-2.7 25-25 65.4-25 90.4 0l381.3 381.3c25 25 25 65.4 0 90.4s-65.4 25-90.4 0l-336-336-336.7 336.7c-25 25-65.4 25-90.4 0-24.9-25-24.9-65.4 0-90.4z"  horiz-adv-x="1024" />

    
    <glyph glyph-name="arrow-left" unicode="&#58895;" d="M892.5 449.8h-608.5l268 268c24.9 24.9 24.9 65.5 0 90.4-24.9 24.9-65.5 24.9-90.4 0l-377.2-377.2c-24.9-24.9-24.9-65.5 0-90.4 2-2 4.1-3.8 6.2-5.5l371.6-371.6c24.9-24.9 65.5-24.9 90.4 0s24.9 65.5 0 90.4l-268 268h607.8c35.2 0 63.9 28.8 63.9 63.9 0.1 35.2-28.7 64-63.8 64z"  horiz-adv-x="1024" />

    
    <glyph glyph-name="arrow-right" unicode="&#58896;" d="M129.7 321h608.5l-268-268c-24.9-24.9-24.9-65.5 0-90.4s65.5-24.9 90.4 0l377.2 377.2c24.9 24.9 24.9 65.5 0 90.4-2 2-4.1 3.8-6.2 5.5l-371.7 371.5c-24.9 24.9-65.5 24.9-90.4 0-24.9-24.9-24.9-65.5 0-90.4l268-268h-607.8c-35.2 0-63.9-28.8-63.9-63.9 0-35.2 28.8-63.9 63.9-63.9z"  horiz-adv-x="1024" />

    


  </font>
</defs>
</svg>
